<?xml version="1.0" encoding="UTF-8"?>
<svg id="Layer_1" xmlns="http://www.w3.org/2000/svg" xmlns:xlink="http://www.w3.org/1999/xlink" viewBox="0 0 907.31 917.01">
  <defs>
    <style>
      .cls-1 {
        fill: #fff;
      }

      .cls-2 {
        fill: url(#radial-gradient-5);
      }

      .cls-3 {
        fill: url(#radial-gradient);
      }

      .cls-4 {
        fill: url(#radial-gradient-3);
      }

      .cls-5 {
        fill: url(#radial-gradient-2);
      }

      .cls-6 {
        fill: url(#radial-gradient-4);
      }
    </style>
    <radialGradient id="radial-gradient" cx="113.05" cy="328.5" fx="113.05" fy="328.5" r="142.17" gradientUnits="userSpaceOnUse">
      <stop offset=".1" stop-color="#5daaae"/>
      <stop offset=".25" stop-color="#72b5b8"/>
      <stop offset=".57" stop-color="#abd3d5"/>
      <stop offset="1" stop-color="#fff"/>
    </radialGradient>
    <radialGradient id="radial-gradient-2" cx="594.68" cy="333.85" fx="594.68" fy="333.85" r="116.56" xlink:href="#radial-gradient"/>
    <radialGradient id="radial-gradient-3" cx="169.21" cy="744.7" fx="169.21" fy="744.7" r="156.79" xlink:href="#radial-gradient"/>
    <radialGradient id="radial-gradient-4" cx="424.51" cy="241.89" fx="424.51" fy="241.89" r="117.78" xlink:href="#radial-gradient"/>
    <radialGradient id="radial-gradient-5" cx="544.77" cy="507.62" fx="544.77" fy="507.62" r="132.52" xlink:href="#radial-gradient"/>
  </defs>
  <path class="cls-1" d="M628.18,453.56c7.73-18.63,11.56-35.87,11.72-52.71.34-35.66-11.47-68.31-35.07-97.05-25.36-30.87-57.95-53.68-99.64-69.71-51.23-19.7-106.41-26.13-168.68-19.67-58.34,6.06-114.83,24.78-167.92,55.63-49.88,28.99-90.38,66.29-120.37,110.88C21.79,420.24,6.06,462.33,1.48,506.06c-7.88,75.18,15.69,142.67,70.05,200.62,27.12,28.9,60.67,51.39,99.73,66.85,48.66,19.26,97.53,28.9,146.22,28.9,42.45,0,84.76-7.32,126.68-21.97,38.66-13.5,72.78-33.31,101.39-58.85,24.98-22.3,43.54-47.63,55.16-75.31,19.48-46.39,17.49-91.58-5.91-134.3-.39-.72-.77-1.45-1.16-2.21,1.2-1.5,2.36-2.94,3.52-4.37,12.86-15.82,23.29-33.26,31.01-51.84ZM524.46,505.77c-19.4,15.59-44.51,34.02-71.98,45.24-24.06,9.81-51.51,15.48-86.38,17.83-38.55,2.6-87.72-1.02-102.88-32.99-5.57-11.73-4.55-22,3.17-32.34,4.39-5.88,10.24-11.17,18.98-17.17,19.04-13.07,41.06-21.74,65.44-25.76,13.39-2.21,26.52-3.31,39.38-3.31,43.41,0,83.68,12.55,120.12,37.49,4.79,3.28,9.35,7.03,14.15,11ZM560.66,469.89c-.19-.16-.39-.33-.58-.5-69.89-60.36-171.01-79.23-257.58-48.06-22.65,8.15-41.14,18.46-56.52,31.5-9.11,7.72-15.41,14.19-20.44,20.97-13.32,17.94-18.68,39.25-15.09,60.02,2.82,16.29,9.96,31.37,20.64,43.6,38.76,44.36,107.46,45.73,144.95,42.6,33.35-2.79,65.89-10.67,96.72-23.45,26.23-10.86,52.4-26.89,82.37-50.45.04-.03.07-.06.11-.08.07.16.13.32.2.47,11.43,27.25,10.5,54.56-2.84,83.49-7.54,16.33-18.33,31.68-32.11,45.6-16.61,16.79-36.59,31.12-59.4,42.6-38.64,19.44-80.18,30.47-123.46,32.78-47.45,2.53-93.28-4.13-136.15-19.83-38.06-13.93-68.45-33.23-92.93-59.03-40.21-42.39-59.69-91.38-57.89-145.63,1.28-38.42,13.36-76.03,35.91-111.76,16.74-26.52,37.8-49.96,62.58-69.67,68.65-54.6,147.23-82.26,233.64-82.26,1.26,0,2.53,0,3.79.02,33.7.31,65.55,5.82,94.66,16.36,36.19,13.1,63.78,31.62,84.35,56.63,9.03,10.98,15.32,22.28,19.23,34.56,6.04,18.99,5.94,37.15-.31,55.52-5.29,15.52-13.3,30.31-23.85,44.01Z"/>
  <path class="cls-3" d="M19.57,486.58c11.39,3.67,23.15,6.26,34.07,11.29,4.99-28.47,16.02-56.33,32.94-83.13,16.74-26.52,37.8-49.96,62.58-69.67,44.93-35.74,94.15-59.86,147-72.31-1.5-3.82-2.51-7.89-3.17-12.18-1.32-8.58-1.43-17.2-1.44-25.87,0-4.75.73-9.26,2.05-13.45-43.15,9.25-85.04,25.59-125,48.81-49.88,28.99-90.38,66.29-120.37,110.88-22.5,33.45-37.21,68.93-43.93,105.72,5.31-1.25,10.83-1.52,15.28-.09Z"/>
  <path class="cls-5" d="M604.83,303.81c-25.36-30.87-57.95-53.68-99.64-69.71-12.19-4.69-24.62-8.6-37.3-11.79,1,1.95,1.83,4,2.39,6.2,4.23,16.83,7.23,33.94,11.28,50.78,36.04,13.09,63.53,31.58,84.04,56.51,9.03,10.98,15.32,22.28,19.23,34.56,6.04,18.99,5.94,37.15-.31,55.52-5,14.68-12.47,28.68-22.18,41.75,1.72,1.61,3.37,3.37,5.01,5.24.18.16.35.32.6.54,1.46,1.36,2.84,2.81,4.28,4.19,2.89,2.75,5.86,5.43,8.8,8.13,6.19,5.68,12.01,11.61,17.61,17.83,12.19-15.33,22.14-32.13,29.56-49.99,7.73-18.63,11.56-35.87,11.72-52.71.34-35.66-11.47-68.31-35.07-97.05Z"/>
  <path class="cls-1" d="M705.76,70.45C700.51,28.83,667.82,0,626.06,0c-.36,0-.72,0-1.08,0-19.35.23-37.52,5.03-54,14.27-22.97,12.87-41.71,31.87-55.71,56.47-6.31,11.09-10.8,22.87-13.37,35.02-4,18.92-3.32,35.95,2.05,52.06,10.1,30.3,37.28,51.27,69.24,53.42,2.44.17,4.87.25,7.29.25,13.69,0,26.93-2.63,39.46-7.86,40.81-17.01,68.57-47.68,82.5-91.16l.18-.62c3.83-14.33,4.86-27.88,3.15-41.4ZM655.67,67.2c3.84,10.63,3.91,22.86.22,35.37-6.89,23.33-25.04,44.44-47.37,55.1-16.31,7.79-44.93,11.79-56.9-9.14-10.41-18.2-6.91-42.28,9.36-64.41,16.58-22.54,42.08-36.88,63.9-36.88,3.32,0,6.56.33,9.67,1.02,10,2.21,17.49,8.93,21.1,18.93Z"/>
  <path class="cls-1" d="M905.24,328.32c-8.23-54.24-38.56-90.09-90.15-106.56-21.39-6.83-43.96-8.16-68.99-4.06-29.05,4.76-57.78,15.78-87.83,33.69-19.32,11.51-39.49,25.5-61.69,42.77l-5.69,4.43c-9.68,7.54-19.7,15.34-29.63,22.8-11.17,8.38-20.76,14.06-30.2,17.88-7.32,2.96-14.58,5.25-21.58,6.8-9.75,2.17-16.58-.75-22.77-9.78-4.51-6.59-7.88-13.61-9.99-20.86-4.08-13.97-7.32-26.31-9.9-37.72-2.42-10.69-4.68-21.68-6.86-32.31-1.79-8.7-3.57-17.39-5.47-26.07-5.5-25.19-12.01-45.6-20.49-64.23-5.44-11.95-13.13-27.46-24.48-41.39-29.61-36.36-68.33-52.24-115.12-47.15-23.2,2.51-45.44,10.5-66.1,23.73-17.29,11.07-33.1,24.69-47,40.46-16.24,18.43-30.28,39.69-42.95,65-12.03,24.03-21.92,51.16-31.13,85.4-12.97,48.15-19.43,100.56-20.95,169.93v.23c-.3,62.81,7.14,123.95,22.09,181.73,8.52,32.94,16.55,57.59,26.02,79.92,12.97,30.61,29.39,61.39,50.2,94.12,23.19,36.48,55.29,66.08,95.39,87.97,26.73,14.59,55.71,21.95,86.33,21.95,3.97,0,7.96-.12,11.97-.37,42.29-2.6,84.09-14.28,124.24-34.73,39.75-20.24,77.9-46.37,113.41-77.67,83.77-73.83,157.04-157.82,217.8-249.63,14.85-22.44,26.16-41.58,35.61-60.23,13.85-27.36,23.09-51.01,29.07-74.45,8.88-34.76,11.05-63.86,6.84-91.6ZM367.82,862.72c-35.1-1.48-66.64-13.5-91.22-34.8-21.41-18.54-36.72-35.34-48.18-52.85-26.45-40.42-45.53-78.67-58.31-116.95-22.76-68.13-33.3-141.25-31.35-217.34,1.19-46.36,4.71-81.5,11.42-113.93,8.61-41.62,18.23-72.53,31.17-100.22,9.65-20.64,20.3-38.19,32.55-53.64,12.66-15.97,27.31-29.23,43.53-39.41,15.1-9.48,30.68-14.59,47.62-15.62,26.01-1.61,46.44,7.24,62.4,26.95,6.32,7.81,11.49,16.97,15.29,24.07,7.91,14.82,13.94,31.7,18.43,51.61,2.47,10.95,4.78,21.94,7.09,32.93,2.47,11.75,4.95,23.51,7.6,35.22,3.08,13.54,6.75,27.57,10.91,41.72,3.69,12.5,9.32,24.31,16.76,35.1,18.08,26.23,44.23,37.27,75.6,31.92,12.73-2.16,25.82-6.66,40.03-13.74,12.54-6.25,24.91-14.07,37.84-23.93,6.87-5.24,13.69-10.55,20.5-15.87,5.31-4.14,10.61-8.28,15.95-12.38,20.58-15.83,38.43-27.95,56.17-38.13,23.22-13.32,45.28-21.41,67.46-24.71,12.22-1.82,23.66-1.55,34.93.83,35.59,7.52,58.17,32.4,61.95,68.28,2.34,22.29.25,45.33-6.4,70.45-5.85,22.13-14.66,44-26.17,65-11.03,20.13-21.49,37.64-31.97,53.54-56,84.96-124.22,163.6-202.77,233.73-6.3,5.63-12.63,11.05-18.8,16.12-59.14,48.64-113.47,76.17-166.09,84.16-11.34,1.72-22.78,2.35-33.94,1.89Z"/>
  <path class="cls-4" d="M322.4,865.71c.8-3.69,2.09-7.11,3.76-10.23-18.44-5.86-35.2-15.11-49.56-27.56-21.41-18.54-36.72-35.34-48.18-52.85-26.45-40.42-45.53-78.67-58.31-116.95-12.09-36.18-20.69-73.78-25.84-112.48-3.53,1.38-7.14,2.2-10.51,2.1-10.88-.31-17.73-1.68-27.89-5.56-5.52-2.11-10.57-5.44-15.39-8.87,3.62,34.09,9.54,67.45,17.9,99.73,8.52,32.94,16.55,57.58,26.02,79.92,12.97,30.61,29.39,61.39,50.2,94.12,23.2,36.48,55.29,66.08,95.39,87.97,10.63,5.8,21.63,10.41,32.93,13.92,3.18-14.42,6.39-28.83,9.5-43.27Z"/>
  <path class="cls-1" d="M298.85,750.91c-33.66-1.83-66.3-8.39-97.36-19.76-38.06-13.93-68.45-33.23-92.93-59.03-8.45-8.91-15.93-18.12-22.54-27.6-.63,3.43-1.81,6.74-3.69,9.74-5.75,9.18-12.13,17.6-18.59,26.26-.8,1.07-1.37,1.7-1.76,2.06-.6,1.24-1.11,2.59-1.5,3.42-.59,1.23-.76,2.75-.81,3.21-.01.77-.03,1.45-.07,1.79-.07.59-.21,1.14-.31,1.71,3.92,4.71,7.96,9.38,12.27,13.97,27.12,28.9,60.67,51.39,99.73,66.85,48.66,19.26,97.53,28.9,146.22,28.9,1.21,0,2.42-.07,3.62-.08-7.53-14.52-14.24-29.47-20.37-44.62-.91-2.26-1.52-4.54-1.9-6.82Z"/>
  <path class="cls-6" d="M316.53,117.98c20.63,1.34,37.39,10.22,50.92,26.92,6.32,7.81,11.49,16.97,15.29,24.07,7.91,14.82,13.94,31.7,18.43,51.61,2.47,10.95,4.78,21.94,7.09,32.93,2.47,11.75,4.95,23.51,7.6,35.22,3.08,13.53,6.75,27.57,10.91,41.72,3.69,12.51,9.32,24.31,16.76,35.1,18.08,26.23,44.23,37.27,75.6,31.92,2.42-.41,4.86-.94,7.32-1.52-3.47-8-7.27-15.64-11.31-22.81-4.8-8.52-6.89-18.05-5.86-27.05-9.64,2.08-16.43-.85-22.57-9.81-4.51-6.59-7.87-13.61-9.99-20.86-4.08-13.97-7.32-26.31-9.9-37.72-2.42-10.69-4.68-21.68-6.86-32.31-1.79-8.7-3.57-17.39-5.47-26.07-5.5-25.19-12.01-45.6-20.49-64.23-5.44-11.95-13.13-27.46-24.48-41.39-24.96-30.64-56.41-46.68-93.68-47.94,2.89,4.93,4.61,10.43,4.5,16.13-.23,12.28-2.06,24.09-3.81,36.07Z"/>
  <path class="cls-1" d="M499.42,231.98c-49.29-17.9-102.29-23.68-161.76-17.65,3.44,5.47,6.47,11.35,8.69,17.41,4.3,11.76,1.91,23.78-4.57,33.25,13.47-1.44,27.14-2.19,41.03-2.19,1.26,0,2.53,0,3.79.02,33.7.31,65.55,5.82,94.66,16.36,2.4.87,4.71,1.79,7.03,2.7-.02-.74-.09-1.48-.09-2.21,0-17.63,3.98-33.02,11.22-47.68Z"/>
  <path class="cls-2" d="M390.18,457.29c43.4,0,83.67,12.52,120.12,37.48,1.22.84,2.44,1.72,3.63,2.63,1.18.84,2.33,1.68,3.44,2.6,2.4,1.83,4.73,3.7,6.95,5.61.04.04.08.08.15.11v.04c14.24,12.25,24.35,25.54,30.73,40.31.04,0,.04-.04.04-.04l.04.04c.04.15.11.27.19.42.8,1.95,1.56,3.85,2.21,5.8,2.37,6.64,4.01,13.32,4.85,20.04.19.99.31,1.98.38,3.02,1.79,17.79-1.64,35.88-10.31,54.66-4.08,8.86-9.15,17.41-15.11,25.62,14.97,1.75,30.18,7.47,43.33,12.03,2.55.88,5.07,1.83,7.59,2.77,4.69-7.83,8.86-15.86,12.32-24.12,11.34-27.02,15.38-53.67,12.18-79.58-.19-1.79-.46-3.55-.76-5.31-.19-1.15-.38-2.29-.61-3.44-.19-1.14-.42-2.25-.69-3.4-.46-2.37-1.03-4.73-1.64-7.06-3.21-12.02-8.02-23.86-14.39-35.54-.34-.65-.69-1.26-1.03-1.95-.04-.08-.08-.19-.11-.27-8.13-14.01-18.97-27.56-32.98-39.93l-.04.04-.04-.04c-.19-.15-.34-.31-.53-.46-2.67-2.29-5.38-4.54-8.13-6.72-.46-.34-.92-.73-1.37-1.07-45.8-35.74-103.21-54.82-160.75-55.09,6.34,20.54-5.79,38.58-24.03,47.25-5.91,2.81-11.91,5.23-17.99,7.41,1-.18,1.97-.44,2.98-.6,13.4-2.18,26.53-3.28,39.39-3.28Z"/>
  <path class="cls-1" d="M593.99,508.23c-5.26-8-9.56-16.42-15.4-24.04-1.47-1.92-2.89-3.89-4.37-5.81-.4-.52-2.08-2.42-2.98-3.5-.27-.26-.5-.49-.62-.6-1.72-1.64-3.51-3.2-5.31-4.75-.91-.78-1.76-1.61-2.58-2.45-.67.93-1.34,1.86-2.04,2.78l-.04.04-.04-.04c-9.96,12.82-21.99,24.39-36.15,35.88v.04c-2.44,1.95-4.92,3.93-7.52,5.95-4.43,3.47-9.08,6.95-13.97,10.42-.08.08-.19.15-.27.19-15.08,10.76-32.14,21.26-50.23,28.67-19.85,8.09-42.06,13.32-68.78,16.26.15,1.07.23,2.14.23,3.21.08,15.46.99,30.92,1.07,46.38,0,.76-.04,1.53-.08,2.25,30.23-3.36,59.77-10.88,87.87-22.52,17.75-7.37,35.46-17.06,54.35-29.89.31-.19.61-.42.88-.61,7.33-5.19,14.43-10.23,21.26-15.38.23-.19.46-.38.72-.57,1.68-1.3,3.44-2.63,5.15-4.01,0,0,.04,0,.04-.04.04,0,.04-.04.04-.04l.04.04c13.66-10.65,26.38-22.02,38.4-36.3.15-.19.31-.38.46-.57.1-.13.2-.25.31-.38-.14-.2-.3-.38-.44-.59Z"/>
</svg>