<?xml version="1.0" encoding="UTF-8" standalone="no"?><!DOCTYPE svg PUBLIC "-//W3C//DTD SVG 1.1//EN" "http://www.w3.org/Graphics/SVG/1.1/DTD/svg11.dtd"><svg width="100%" height="100%" viewBox="0 0 989 1002" version="1.1" xmlns="http://www.w3.org/2000/svg" xmlns:xlink="http://www.w3.org/1999/xlink" xml:space="preserve" xmlns:serif="http://www.serif.com/" style="fill-rule:evenodd;clip-rule:evenodd;stroke-linejoin:round;stroke-miterlimit:2;"><path d="M366.409,201.138c-6.187,4.746 -12.031,9.234 -17.743,14.359c-5.969,5.356 -8.635,10.444 -8.635,16.506c0,14.591 11.875,26.46 26.466,26.46c7.056,-0 15.9,-4.022 20.572,-9.357c4.272,-4.875 6.319,-12.397 4.975,-18.29c-0.813,-3.554 -2.478,-7.032 -4.525,-10.435l-0.019,0.01l-17.672,-21.885c-1.147,0.888 -2.287,1.76 -3.419,2.632Z" style="fill:#aaa;fill-rule:nonzero;"/><path d="M398.337,149.187c1.119,-0.865 2.222,-1.718 3.335,-2.578c2.209,-1.709 4.425,-3.425 6.622,-5.121c1.318,-1.016 2.65,-2.044 3.956,-3.057c4.075,-3.14 8.144,-6.281 12.209,-9.425c0.125,-0.097 0.335,-0.262 0.597,-0.469c2.363,-1.84 10.197,-7.974 20.585,-16.112l24.578,-19.262c-2.8,-2.194 -5.547,-4.347 -8.207,-6.429c-14.55,11.235 -29.234,22.619 -43.887,34.116c-3.925,3.078 -7.825,6.169 -11.731,9.259c-1.21,0.957 -2.425,1.913 -3.635,2.872l-1.262,1l-9.81,7.785l-20.881,16.568c-3.178,2.466 -6.331,4.894 -9.459,7.291c-12.038,9.241 -23.406,17.966 -34.656,28.059c-13.513,12.122 -19.81,24.5 -19.81,38.944c0,33.394 27.166,60.56 60.56,60.56c16.331,-0 36.031,-8.954 46.837,-21.291c10.288,-11.75 14.997,-29.313 11.716,-43.703c-2.041,-8.95 -6.253,-17.475 -11.472,-25.647l-0.009,0.003l-18.766,-24.563c-3.1,2.435 -6.194,4.875 -9.275,7.322c0.422,0.466 0.85,0.932 1.281,1.404c2.409,2.637 4.903,5.359 7.306,8.243c2.119,2.541 4.185,5.191 6.175,7.919c1.01,1.362 1.925,2.653 2.56,3.722l-0,0.05c3.906,5.909 7.212,12.281 8.85,19.472c2.84,12.465 -0.957,26.953 -9.678,36.912c-8.675,9.906 -23.332,16.566 -36.469,16.566c-26.244,-0 -47.597,-21.35 -47.597,-47.594c0,-12.244 5.122,-22.787 15.653,-32.237c6.316,-5.666 12.759,-10.61 18.991,-15.394c1.884,-1.447 3.787,-2.906 5.703,-4.4c1.603,-1.25 3.787,-2.966 5.365,-4.235c4.279,-3.45 8.616,-6.868 12.951,-10.287l-2.757,2.156c2.269,-1.797 4.544,-3.597 6.822,-5.384c5.572,-4.378 11.15,-8.728 16.709,-13.035Z" style="fill:#aaa;fill-rule:nonzero;"/><path d="M663.525,382.094c0,25.181 13.797,55.537 32.806,72.19c18.31,16.032 45.731,23.36 68.238,18.229c15.722,-3.585 30.415,-11.547 44.381,-21.088l21.494,-16.078c-2.444,-3.16 -4.897,-6.335 -7.366,-9.525c-0.916,0.787 -1.803,1.591 -2.731,2.365c-4.581,3.819 -9.344,7.551 -14.238,11.138c-3.731,2.791 -7.431,5.391 -10.422,7.109c-9.628,6.025 -19.906,10.96 -31.131,13.519c-21,4.791 -45.462,-1.659 -62.325,-16.422c-17.047,-14.931 -28.5,-40.14 -28.5,-62.734c0,-45.044 36.647,-81.691 81.694,-81.691c20.594,0 38.478,8.775 54.675,26.831c10.631,11.854 19.597,23.535 29.087,35.9c2.794,3.638 5.61,7.307 8.501,11.016c2.428,3.116 5.762,7.366 8.234,10.431c4.109,5.1 8.206,10.254 12.294,15.407c0.518,0.65 1.04,1.297 1.556,1.943c4.387,5.525 8.753,11.063 13.115,16.616c0.447,0.572 0.891,1.144 1.341,1.716c2.866,3.653 5.659,7.29 8.513,10.94l0.031,-0.022l21.997,28.325c2.606,-3.325 4.884,-6.237 6.75,-8.618c-8.847,-11.26 -17.735,-22.479 -26.644,-33.628l0.016,-0.007l-19.885,-24.906c-1.606,-2.05 -2.912,-3.728 -3.581,-4.584c-4.266,-5.475 -8.425,-10.897 -12.553,-16.272c-13.572,-17.678 -26.385,-34.378 -41.272,-50.969c-18.731,-20.875 -37.987,-30.6 -60.609,-30.6c-51.538,0 -93.466,41.928 -93.466,93.469Z" style="fill:#aaa;fill-rule:nonzero;"/><path d="M908.316,500.706c-1.557,1.982 -3.122,3.978 -4.697,5.991c-2.916,3.719 -5.844,7.453 -8.728,11.134c-16.829,21.472 -32.244,41.144 -35.378,45.163c-0.204,0.262 -0.369,0.475 -0.466,0.6c-3.122,4.034 -6.238,8.075 -9.356,12.115c-1.035,1.341 -2.088,2.704 -3.125,4.047c-1.932,2.503 -3.879,5.019 -5.825,7.538c-0.632,0.806 -1.247,1.609 -1.875,2.419c-4.307,5.559 -8.657,11.137 -13.035,16.709c-1.412,1.797 -2.831,3.591 -4.247,5.384l1.675,-2.147c-3.634,4.616 -7.271,9.229 -10.943,13.785c-1.269,1.572 -2.985,3.756 -4.235,5.359c-1.5,1.925 -2.965,3.835 -4.419,5.725c-4.778,6.225 -9.715,12.663 -15.381,18.972c-9.443,10.531 -19.987,15.65 -32.231,15.65c-26.244,-0 -47.597,-21.353 -47.597,-47.594c0,-13.137 6.659,-27.794 16.569,-36.472c9.956,-8.721 24.444,-12.518 36.912,-9.678c7.144,1.632 13.472,4.9 19.354,8.772c0.05,0.022 0.118,-0.028 0.165,0c2.572,1.531 6.244,4.397 9.816,7.369c0.603,0.487 1.237,0.956 1.822,1.447c1.203,1 2.278,2.018 3.428,3.034c1.828,1.597 3.356,2.956 4.465,3.953c0.107,0.103 0.235,0.206 0.347,0.31c0.222,0.206 0.444,0.406 0.663,0.609c0.465,0.419 0.75,0.681 0.75,0.681c2.456,-3.097 4.912,-6.209 7.356,-9.328l-23.628,-18.053c-8.469,-5.512 -17.303,-10.019 -26.613,-12.141c-14.39,-3.278 -31.956,1.429 -43.706,11.719c-12.334,10.8 -21.287,30.5 -21.287,46.835c-0,33.39 27.165,60.556 60.559,60.559c14.444,-0 26.819,-6.297 38.944,-19.813c10.097,-11.253 18.828,-22.631 28.068,-34.671c1.651,-2.151 3.316,-4.31 4.991,-6.485l21.044,-26.575l-0.006,-0.003c1.871,-2.356 3.737,-4.713 5.609,-7.069c4.388,-5.531 8.762,-11.065 13.125,-16.628c11.497,-14.653 22.888,-29.337 34.119,-43.887c3.15,-4.078 6.315,-8.172 9.437,-12.222c1.297,-1.678 2.594,-3.353 3.891,-5.035c2.078,-2.693 4.159,-5.387 6.237,-8.078c2.657,-3.44 5.307,-6.881 7.966,-10.312c0.644,-0.831 2.534,-3.256 5.416,-6.938c-2.06,-2.665 -4.116,-5.325 -6.172,-7.99c-4.022,5.131 -8.591,10.965 -13.447,17.159c-2.066,2.638 -4.184,5.341 -6.331,8.081Z" style="fill:#aaa;fill-rule:nonzero;"/><path d="M425.994,773.219c3.281,-14.394 -1.428,-31.956 -11.716,-43.71c-10.806,-12.331 -30.506,-21.287 -46.837,-21.287c-33.394,-0 -60.56,27.166 -60.56,60.559c0,14.447 6.297,26.822 19.81,38.944c11.25,10.091 22.618,18.819 34.656,28.059c3.128,2.4 6.281,4.825 9.459,7.288l20.881,16.572l9.81,7.784l1.262,1c1.21,0.96 2.425,1.916 3.635,2.872c3.906,3.091 7.806,6.181 11.731,9.259c14.653,11.497 29.337,22.885 43.887,34.119c2.66,-2.084 5.407,-4.237 8.207,-6.431l-24.578,-19.26c-10.388,-8.14 -18.222,-14.274 -20.585,-16.115c-0.262,-0.206 -0.472,-0.372 -0.597,-0.466c-4.065,-3.147 -8.134,-6.287 -12.209,-9.428c-1.306,-1.009 -2.638,-2.04 -3.956,-3.056c-2.197,-1.697 -4.413,-3.413 -6.622,-5.122c-1.113,-0.859 -2.216,-1.712 -3.335,-2.575c-5.559,-4.306 -11.137,-8.659 -16.709,-13.034c-2.278,-1.791 -4.553,-3.588 -6.822,-5.388l2.757,2.159c-4.335,-3.421 -8.672,-6.84 -12.951,-10.287c-1.578,-1.269 -3.762,-2.987 -5.365,-4.237c-1.916,-1.494 -3.819,-2.954 -5.703,-4.401c-6.232,-4.781 -12.675,-9.728 -18.991,-15.396c-10.531,-9.444 -15.653,-19.991 -15.653,-32.232c0,-26.246 21.353,-47.596 47.597,-47.596c13.137,-0 27.794,6.656 36.469,16.565c8.721,9.96 12.518,24.447 9.678,36.913c-1.638,7.19 -4.944,13.562 -8.85,19.472l-0,0.049c-0.635,1.069 -1.55,2.363 -2.56,3.722c-1.99,2.728 -4.056,5.382 -6.175,7.919c-2.403,2.885 -4.897,5.606 -7.306,8.244c-0.431,0.472 -0.859,0.94 -1.281,1.403c3.081,2.447 6.175,4.888 9.275,7.322l18.766,-24.563l0.009,0.007c5.219,-8.175 9.431,-16.7 11.472,-25.647Z" style="fill:#aaa;fill-rule:nonzero;"/><path d="M786.916,379.766c-4.754,-6.188 -9.238,-12.032 -14.36,-17.741c-5.356,-5.972 -10.447,-8.634 -16.506,-8.634c-14.591,-0 -26.463,11.872 -26.463,26.462c0,7.056 4.022,15.903 9.357,20.575c4.878,4.269 12.4,6.316 18.294,4.972c3.553,-0.809 7.031,-2.478 10.434,-4.525l-0.009,-0.019l21.881,-17.672c-0.888,-1.146 -1.76,-2.284 -2.628,-3.418Z" style="fill:#aaa;fill-rule:nonzero;"/><path d="M857.941,419.753c-0.957,-1.209 -1.91,-2.428 -2.869,-3.637l-1,-1.26l-7.784,-9.812l-16.572,-20.881c-2.463,-3.179 -4.891,-6.332 -7.291,-9.46c-9.238,-12.034 -17.966,-23.403 -28.056,-34.656c-12.125,-13.513 -24.5,-19.806 -38.944,-19.806c-33.397,-0 -60.559,27.165 -60.559,60.556c-0,16.334 8.953,36.031 21.287,46.837c11.75,10.288 29.316,14.997 43.706,11.716c8.95,-2.041 17.469,-6.253 25.647,-11.472l-0.003,-0.009l24.556,-18.763c-2.428,-3.103 -4.868,-6.197 -7.315,-9.275c-0.466,0.422 -0.938,0.847 -1.403,1.278c-2.638,2.413 -5.363,4.904 -8.25,7.307c-2.532,2.115 -5.185,4.181 -7.903,6.171c-1.366,1.013 -2.663,1.929 -3.735,2.563c-0.016,0.009 -0.031,-0.006 -0.031,-0.006c-5.925,3.915 -12.297,7.218 -19.488,8.859c-12.468,2.841 -26.953,-0.959 -36.912,-9.678c-9.91,-8.678 -16.569,-23.331 -16.569,-36.472c0,-26.244 21.353,-47.594 47.597,-47.594c12.244,0 22.788,5.119 32.231,15.65c5.672,6.316 10.613,12.76 15.397,18.991c1.447,1.884 2.906,3.787 4.4,5.703c1.253,1.603 2.972,3.791 4.238,5.366c3.45,4.278 6.868,8.615 10.287,12.953l-2.156,-2.759c1.8,2.271 3.594,4.543 5.384,6.824c4.378,5.572 8.728,11.15 13.035,16.71c0.865,1.116 1.718,2.219 2.575,3.331c1.712,2.209 3.428,4.425 5.125,6.625c1.015,1.316 2.043,2.647 3.053,3.956c3.143,4.072 6.284,8.144 9.428,12.207c0.097,0.125 0.262,0.337 0.466,0.6c1.84,2.362 7.978,10.196 16.118,20.581l19.26,24.581c2.193,-2.803 4.343,-5.547 6.428,-8.206c-11.231,-14.553 -22.619,-29.238 -34.119,-43.891c-3.075,-3.925 -6.166,-7.825 -9.259,-11.728Z" style="fill:#aaa;fill-rule:nonzero;"/><path d="M757.238,596.009c-5.894,-1.343 -13.416,0.703 -18.294,4.972c-5.335,4.672 -9.357,13.519 -9.357,20.575c0,14.588 11.872,26.463 26.463,26.463c6.059,-0 11.15,-2.663 16.506,-8.631c5.119,-5.71 9.597,-11.544 14.347,-17.725c0.888,-1.157 1.778,-2.319 2.678,-3.488l-21.697,-17.525c-3.468,-2.109 -7.021,-3.812 -10.646,-4.641Z" style="fill:#aaa;fill-rule:nonzero;"/><path d="M392.044,770.594c1.344,-5.894 -0.703,-13.416 -4.975,-18.291c-4.672,-5.334 -13.516,-9.359 -20.572,-9.359c-14.591,-0 -26.466,11.875 -26.466,26.465c0,6.057 2.666,11.147 8.635,16.504c5.712,5.128 11.556,9.612 17.743,14.362c1.132,0.869 2.272,1.741 3.419,2.628l17.672,-21.881l0.019,0.009c2.047,-3.403 3.712,-6.884 4.525,-10.437Z" style="fill:#aaa;fill-rule:nonzero;"/><path d="M509.987,676.172c-11.278,12.881 -19.109,28.919 -22.637,45.841c-3.534,-16.922 -11.366,-32.96 -22.644,-45.841c-20.153,-23.016 -55.54,-39.091 -86.053,-39.091c-10.412,0 -20.65,1.438 -30.581,4.288c2.847,-9.932 4.284,-20.169 4.284,-30.585c0,-30.515 -16.075,-65.9 -39.09,-86.053c-12.969,-11.356 -29.213,-19.137 -46.069,-22.64c16.856,-3.503 33.1,-11.285 46.069,-22.641c23.015,-20.156 39.09,-55.541 39.09,-86.053c0,-10.416 -1.437,-20.65 -4.284,-30.581c9.931,2.846 20.165,4.284 30.581,4.284c30.513,0 65.897,-16.075 86.053,-39.094c11.278,-12.878 19.11,-28.915 22.644,-45.837c3.528,16.922 11.359,32.959 22.641,45.837c20.15,23.019 55.537,39.094 86.05,39.094c10.415,0 20.65,-1.438 30.584,-4.284c-2.847,9.931 -4.287,20.165 -4.287,30.581c-0,30.512 16.074,65.897 39.093,86.053c12.969,11.356 29.213,19.138 46.069,22.641c-16.859,3.503 -33.1,11.284 -46.069,22.64c-23.019,20.153 -39.093,55.538 -39.093,86.053c-0,10.416 1.44,20.653 4.287,30.585c-9.934,-2.85 -20.169,-4.288 -30.584,-4.288c-30.513,0 -65.9,16.075 -86.054,39.091Zm132.404,-56.856c-0,-31.232 16.456,-67.453 40.018,-88.085c23.522,-20.6 57.616,-29.603 86.857,-22.934c18.397,4.194 35.031,13.053 50.603,23.584c0.059,-0.009 0.181,-0.134 0.228,-0.118c1.734,0.512 23.309,17.521 23.309,17.521c4.488,-5.74 20.907,-26.7 38.06,-48.578c-17.244,-22 -33.582,-42.85 -38.06,-48.581c-5.743,4.675 -11.659,9.238 -17.734,13.588c-2.828,2.109 -5.072,3.706 -5.575,3.856c-0.035,0.009 -0.122,-0.085 -0.163,-0.085c-15.587,10.553 -32.247,19.432 -50.668,23.632c-29.241,6.665 -63.335,-2.338 -86.857,-22.938c-23.562,-20.631 -40.018,-56.853 -40.018,-88.084c-0,-16.475 3.559,-32.11 9.847,-46.282c-14.169,6.288 -29.807,9.85 -46.279,9.85c-31.234,0 -67.453,-16.456 -88.087,-40.018c-20.6,-23.522 -29.6,-57.616 -22.934,-86.857c4.193,-18.396 13.056,-35.031 23.587,-50.603c-0.012,-0.059 -0.134,-0.181 -0.122,-0.228c0.513,-1.734 17.522,-23.309 17.522,-23.309c-5.737,-4.485 -26.697,-20.909 -48.575,-38.059c-22,17.243 -42.85,33.581 -48.584,38.059c4.678,5.744 9.24,11.662 13.593,17.737c2.107,2.829 3.704,5.069 3.85,5.572c0.013,0.032 -0.081,0.122 -0.084,0.163c10.553,15.587 19.431,32.243 23.631,50.668c6.669,29.241 -2.334,63.335 -22.934,86.857c-20.635,23.562 -56.856,40.018 -88.084,40.018c-16.476,0 -32.11,-3.562 -46.282,-9.85c6.288,14.172 9.85,29.807 9.85,46.282c0,31.231 -16.459,67.453 -40.022,88.084c-23.522,20.6 -57.615,29.603 -86.856,22.938c-18.422,-4.2 -35.081,-13.079 -50.669,-23.632c-0.04,0 -0.128,0.094 -0.159,0.085c-0.506,-0.15 -2.747,-1.747 -5.578,-3.853c-6.072,-4.353 -11.991,-8.916 -17.731,-13.591c-3.835,4.909 -16.388,20.928 -30.738,39.237l-7.322,9.344c17.15,21.878 33.575,42.838 38.06,48.578c-0,0 21.571,-17.009 23.309,-17.521c0.044,-0.016 0.169,0.109 0.228,0.118c15.569,-10.531 32.203,-19.39 50.6,-23.584c29.241,-6.669 63.334,2.334 86.856,22.934c23.563,20.632 40.022,56.853 40.022,88.085c0,16.475 -3.562,32.109 -9.853,46.281c14.175,-6.288 29.809,-9.85 46.285,-9.85c31.228,-0 67.449,16.456 88.084,40.019c20.6,23.525 29.603,57.615 22.934,86.856c-4.2,18.425 -13.078,35.081 -23.631,50.669c0.003,0.04 0.097,0.131 0.084,0.162c-0.146,0.503 -1.743,2.747 -3.85,5.572c-4.353,6.075 -8.915,11.994 -13.593,17.738c5.734,4.478 26.584,20.815 48.584,38.059c21.878,-17.15 42.838,-33.572 48.575,-38.059c0,-0 -17.009,-21.572 -17.522,-23.31c-0.012,-0.047 0.11,-0.169 0.122,-0.228c-10.531,-15.572 -19.394,-32.206 -23.587,-50.603c-6.666,-29.241 2.334,-63.331 22.934,-86.856c20.634,-23.563 56.853,-40.019 88.087,-40.019c16.472,-0 32.11,3.562 46.279,9.85c-6.288,-14.172 -9.847,-29.806 -9.847,-46.281Z" style="fill:#aaa;fill-rule:nonzero;"/><path d="M479.981,558.744c-6.559,-7.491 -18.078,-12.722 -28.006,-12.722c-3.391,-0 -6.722,0.469 -9.953,1.394c0.925,-3.232 1.394,-6.563 1.394,-9.95c-0,-9.935 -5.232,-21.447 -12.722,-28.007c-4.222,-3.697 -9.507,-6.228 -14.994,-7.368c5.487,-1.141 10.775,-3.672 14.994,-7.369c7.49,-6.559 12.722,-18.075 12.722,-28.003c-0,-3.391 -0.469,-6.722 -1.394,-9.956c3.231,0.928 6.562,1.393 9.953,1.393c9.928,0 21.447,-5.231 28.006,-12.722c3.669,-4.19 6.219,-9.409 7.369,-14.915c1.147,5.506 3.694,10.725 7.366,14.915c6.559,7.491 18.075,12.722 28.006,12.722c3.39,0 6.719,-0.465 9.95,-1.393c-0.922,3.234 -1.391,6.565 -1.391,9.956c0,9.928 5.231,21.444 12.719,28.003c4.222,3.697 9.506,6.228 14.994,7.369c-5.488,1.14 -10.772,3.671 -14.994,7.368c-7.488,6.56 -12.719,18.072 -12.719,28.007c0,3.387 0.469,6.718 1.394,9.95c-3.234,-0.925 -6.563,-1.394 -9.953,-1.394c-9.931,-0 -21.447,5.231 -28.006,12.722c-3.672,4.194 -6.219,9.412 -7.366,14.918c-1.15,-5.506 -3.7,-10.724 -7.369,-14.918Zm104.503,-56.653c-17.378,-16.56 -29.296,-42.222 -30.878,-66.257c-24.037,-1.584 -49.703,-13.503 -66.256,-30.881c-16.559,17.378 -42.225,29.297 -66.259,30.881c-1.582,24.035 -13.5,49.697 -30.878,66.257c17.378,16.556 29.296,42.221 30.878,66.256c24.034,1.584 49.7,13.5 66.259,30.878c16.553,-17.378 42.219,-29.297 66.256,-30.878c1.582,-24.035 13.5,-49.7 30.878,-66.256Z" style="fill:#aaa;fill-rule:nonzero;"/><path d="M934.266,517.953c-2.057,2.666 -4.116,5.325 -6.172,7.991c-0.203,0.262 -0.403,0.525 -0.606,0.787c-4.204,5.45 -8.466,10.963 -12.719,16.469c-9.847,12.744 -19.822,25.566 -29.872,38.384c-0.672,0.86 -1.338,1.716 -2.013,2.575c-4.359,5.554 -8.725,11.088 -13.112,16.616c-0.659,0.828 -1.319,1.647 -1.975,2.475c-3.956,4.975 -7.906,9.953 -11.875,14.878c-2.472,3.066 -5.806,7.316 -8.234,10.425c-2.885,3.703 -5.697,7.369 -8.485,11c-9.497,12.372 -18.466,24.059 -29.103,35.919c-16.203,18.053 -34.081,26.831 -54.678,26.831c-45.044,-0.003 -81.691,-36.647 -81.691,-81.69c0,-22.597 11.453,-47.81 28.5,-62.735c16.863,-14.762 41.325,-21.209 62.325,-16.422c11.063,2.522 21.203,7.331 30.707,13.228c0.015,0.007 0.034,-0.028 0.049,-0.018c3.379,1.9 7.769,5.028 12.054,8.275c0.3,0.222 0.593,0.443 0.893,0.665c3.675,2.813 7.11,5.588 9.813,7.806c0.744,0.613 1.537,1.194 2.275,1.81c0.928,0.775 1.815,1.578 2.731,2.365c2.481,-3.206 4.95,-6.396 7.403,-9.578l-20.553,-15.368c-14.25,-9.844 -29.272,-18.075 -45.359,-21.744c-22.507,-5.131 -49.928,2.197 -68.238,18.231c-19.009,16.647 -32.806,47.006 -32.806,72.188c0,51.537 41.928,93.468 93.466,93.468c22.622,0 41.878,-9.721 60.609,-30.603c14.887,-16.593 27.706,-33.297 41.281,-50.975c4.122,-5.372 8.282,-10.787 12.544,-16.265c0.256,-0.329 0.613,-0.785 1.037,-1.332l21.46,-26.947l-0.009,-0.009c9.231,-11.544 18.44,-23.169 27.606,-34.834c4.487,-5.71 8.956,-11.419 13.422,-17.138c2.065,-2.65 4.134,-5.297 6.197,-7.944c4.471,-5.743 8.925,-11.478 13.368,-17.209c-2.978,-3.806 -5.331,-6.812 -6.9,-8.822c-1.009,1.288 -1.703,2.182 -2.047,2.619c-3.765,4.872 -7.531,9.753 -11.293,14.628Z" style="fill:#aaa;fill-rule:nonzero;"/><path d="M520.072,502.091c-4.772,-6.722 -8.297,-14.538 -10.172,-22.554c-8.012,-1.875 -15.831,-5.4 -22.55,-10.171c-6.722,4.771 -14.541,8.296 -22.556,10.171c-1.872,8.016 -5.4,15.832 -10.172,22.554c4.772,6.722 8.3,14.537 10.172,22.553c8.018,1.872 15.831,5.4 22.553,10.172c6.722,-4.772 14.537,-8.3 22.553,-10.172c1.875,-8.016 5.403,-15.831 10.172,-22.553Z" style="fill:#aaa;fill-rule:nonzero;"/><path d="M502.272,616.841c-7.435,8.487 -12.597,19.059 -14.922,30.215c-2.331,-11.156 -7.491,-21.728 -14.925,-30.215c-13.287,-15.172 -36.613,-25.769 -56.725,-25.769c-6.866,-0 -13.613,0.947 -20.159,2.825c1.878,-6.547 2.825,-13.294 2.825,-20.159c-0,-20.113 -10.597,-43.438 -25.769,-56.725c-8.547,-7.485 -19.253,-12.613 -30.366,-14.922c11.113,-2.31 21.819,-7.438 30.366,-14.925c15.172,-13.285 25.769,-36.61 25.769,-56.722c-0,-6.866 -0.947,-13.613 -2.825,-20.16c6.546,1.878 13.293,2.825 20.159,2.825c20.112,0 43.438,-10.596 56.725,-25.768c7.434,-8.491 12.594,-19.06 14.925,-30.216c2.325,11.156 7.487,21.725 14.922,30.216c13.284,15.172 36.609,25.768 56.722,25.768c6.865,0 13.615,-0.947 20.159,-2.825c-1.878,6.547 -2.825,13.294 -2.825,20.16c0,20.112 10.597,43.437 25.769,56.722c8.55,7.487 19.253,12.615 30.369,14.925c-11.116,2.309 -21.819,7.437 -30.369,14.922c-15.172,13.287 -25.769,36.612 -25.769,56.725c0,6.865 0.947,13.612 2.825,20.159c-6.544,-1.878 -13.291,-2.825 -20.159,-2.825c-20.113,-0 -43.438,10.597 -56.722,25.769Zm97.206,-2.619c-0.028,-1.144 -0.04,-2.291 -0.04,-3.438c-0,-37.212 18.849,-78.718 46.903,-103.284c2.15,-1.881 4.371,-3.684 6.653,-5.409c-2.285,-1.722 -4.503,-3.528 -6.653,-5.41c-28.054,-24.569 -46.903,-66.078 -46.903,-103.284c-0,-1.147 0.012,-2.294 0.04,-3.438c-1.144,0.028 -2.29,0.044 -3.437,0.044c-37.21,0 -78.719,-18.853 -103.285,-46.909c-1.881,-2.147 -3.684,-4.366 -5.406,-6.644c-1.725,2.278 -3.531,4.497 -5.412,6.647c-24.569,28.053 -66.076,46.906 -103.285,46.906c-1.147,0 -2.294,-0.016 -3.437,-0.044c0.028,1.144 0.043,2.291 0.043,3.438c0,37.206 -18.85,78.715 -46.906,103.284c-2.147,1.882 -4.369,3.688 -6.653,5.41c2.284,1.725 4.506,3.528 6.653,5.409c28.056,24.566 46.906,66.072 46.906,103.284c0,1.144 -0.015,2.294 -0.043,3.438c1.143,-0.031 2.29,-0.044 3.437,-0.044c37.209,0 78.719,18.85 103.288,46.906c1.881,2.15 3.684,4.366 5.409,6.647c1.722,-2.281 3.525,-4.497 5.406,-6.647c24.566,-28.056 66.075,-46.906 103.285,-46.906c1.147,0 2.293,0.013 3.437,0.044Z" style="fill:#aaa;fill-rule:nonzero;"/><path d="M512.587,59.959c0.263,0.204 0.525,0.404 0.785,0.607c5.453,4.206 10.962,8.465 16.469,12.721c12.743,9.844 25.568,19.816 38.384,29.869c0.863,0.672 1.719,1.338 2.578,2.013c5.553,4.359 11.088,8.725 16.616,13.115c0.828,0.657 1.647,1.316 2.475,1.972c4.975,3.953 9.953,7.906 14.878,11.875c3.062,2.472 7.316,5.81 10.425,8.232c3.7,2.884 7.366,5.699 10.997,8.487c12.375,9.497 24.062,18.466 35.919,29.103c18.056,16.197 26.834,34.084 26.834,54.678c-0.003,45.044 -36.647,81.688 -81.691,81.688c-22.597,-0 -47.809,-11.453 -62.734,-28.5c-14.763,-16.86 -21.213,-41.322 -16.422,-62.322c2.519,-11.063 7.328,-21.206 13.228,-30.706c0.006,-0.016 -0.031,-0.041 -0.022,-0.057c1.903,-3.375 5.032,-7.762 8.278,-12.046c0.222,-0.301 0.441,-0.597 0.666,-0.894c2.813,-3.675 5.588,-7.113 7.806,-9.813c0.613,-0.743 1.194,-1.537 1.81,-2.278c0.775,-0.928 1.578,-1.812 2.362,-2.728c-3.203,-2.484 -6.397,-4.95 -9.575,-7.403l-15.372,20.547c-9.84,14.256 -18.072,29.278 -21.74,45.365c-5.132,22.504 2.196,49.929 18.228,68.238c16.647,19.009 47.006,32.809 72.19,32.809c51.538,0 93.469,-41.931 93.469,-93.468c0,-22.622 -9.725,-41.882 -30.603,-60.613c-16.594,-14.884 -33.294,-27.706 -50.978,-41.278c-5.369,-4.122 -10.788,-8.281 -16.266,-12.544c-0.325,-0.256 -0.784,-0.612 -1.328,-1.037l-26.95,-21.46l-0.006,0.01c-11.544,-9.232 -23.169,-18.438 -34.834,-27.607c-5.71,-4.484 -11.419,-8.956 -17.138,-13.421c-2.65,-2.066 -5.3,-4.135 -7.947,-6.197c-5.74,-4.472 -11.475,-8.925 -17.206,-13.369c-3.806,2.978 -6.813,5.334 -8.822,6.903c1.288,1.009 2.178,1.703 2.616,2.041c4.871,3.768 9.753,7.534 14.631,11.297c2.666,2.059 5.325,4.115 7.99,6.171Z" style="fill:#aaa;fill-rule:nonzero;"/><path d="M311.172,619.316c-0,-25.182 -13.797,-55.541 -32.81,-72.188c-18.309,-16.034 -45.731,-23.362 -68.237,-18.231c-16.087,3.669 -31.113,11.9 -45.366,21.747l-20.546,15.365c2.453,3.182 4.921,6.372 7.403,9.578c0.915,-0.787 1.803,-1.59 2.731,-2.365c0.74,-0.616 1.537,-1.2 2.284,-1.816c2.694,-2.212 6.122,-4.981 9.788,-7.784c0.306,-0.235 0.612,-0.459 0.922,-0.691c4.284,-3.243 8.662,-6.365 12.037,-8.265c0.016,-0.01 0.038,0.025 0.038,0.025c9.518,-5.904 19.659,-10.713 30.721,-13.235c21.004,-4.787 45.466,1.66 62.325,16.422c17.047,14.925 28.501,40.138 28.501,62.735c-0,45.043 -36.647,81.687 -81.688,81.69c-20.597,0 -38.481,-8.778 -54.678,-26.831c-10.638,-11.86 -19.61,-23.547 -29.106,-35.919c-2.788,-3.631 -5.6,-7.297 -8.485,-11c-2.425,-3.109 -5.759,-7.359 -8.231,-10.425c-3.972,-4.925 -7.922,-9.903 -11.875,-14.878c-0.656,-0.828 -1.316,-1.647 -1.975,-2.475c-4.388,-5.528 -8.756,-11.062 -13.116,-16.616c-0.675,-0.859 -1.34,-1.715 -2.012,-2.575c-10.05,-12.818 -20.022,-25.64 -29.869,-38.384c-4.256,-5.506 -8.512,-11.019 -12.719,-16.469c-0.203,-0.262 -0.406,-0.525 -0.609,-0.787c-2.056,-2.666 -4.112,-5.325 -6.169,-7.991c-3.765,-4.875 -7.528,-9.756 -11.3,-14.628c-0.337,-0.437 -1.034,-1.331 -2.04,-2.619c-1.572,2.01 -3.922,5.016 -6.9,8.822c4.44,5.731 8.897,11.466 13.365,17.209c2.063,2.647 4.131,5.294 6.2,7.944c4.463,5.719 8.935,11.428 13.419,17.138c9.169,11.665 18.375,23.29 27.606,34.834l-0.009,0.009l21.459,26.947c0.425,0.547 0.781,1.003 1.038,1.332c4.265,5.478 8.425,10.893 12.547,16.265c13.571,17.678 26.39,34.382 41.278,50.975c18.731,20.882 37.99,30.603 60.609,30.603c51.538,0 93.469,-41.931 93.469,-93.468Z" style="fill:#aaa;fill-rule:nonzero;"/><path d="M187.794,621.663c4.743,6.181 9.225,12.015 14.343,17.725c5.357,5.968 10.447,8.631 16.507,8.631c14.59,-0 26.462,-11.875 26.462,-26.463c0,-7.056 -4.022,-15.903 -9.356,-20.575c-4.875,-4.269 -12.397,-6.315 -18.291,-4.972c-3.625,0.829 -7.178,2.532 -10.647,4.641l-21.7,17.525c0.904,1.169 1.791,2.331 2.682,3.488Z" style="fill:#aaa;fill-rule:nonzero;"/><path d="M626.028,785.913c5.972,-5.357 8.631,-10.447 8.631,-16.504c0,-14.59 -11.872,-26.465 -26.462,-26.465c-7.053,-0 -15.9,4.025 -20.575,9.359c-4.269,4.875 -6.313,12.397 -4.969,18.291c0.828,3.628 2.531,7.181 4.644,10.653l17.522,21.691c1.165,-0.9 2.328,-1.791 3.484,-2.679c6.181,-4.747 12.019,-9.225 17.725,-14.346Z" style="fill:#aaa;fill-rule:nonzero;"/><path d="M487.35,934.244c2.691,-2.081 5.381,-4.16 8.078,-6.241c1.681,-1.297 3.356,-2.594 5.035,-3.887c4.05,-3.122 8.14,-6.288 12.218,-9.438c14.55,-11.234 29.235,-22.622 43.891,-34.119c5.562,-4.362 11.097,-8.74 16.628,-13.128c2.356,-1.872 4.713,-3.737 7.069,-5.606l0.003,0.006l26.575,-21.047c2.172,-1.675 4.334,-3.34 6.484,-4.987c12.041,-9.244 23.416,-17.975 34.672,-28.069c13.516,-12.128 19.813,-24.503 19.813,-38.947c-0.003,-33.393 -27.169,-60.559 -60.56,-60.559c-16.337,-0 -36.034,8.953 -46.837,21.287c-10.291,11.75 -14.994,29.316 -11.719,43.71c2.125,9.306 6.631,18.143 12.144,26.609l18.05,23.634c3.122,-2.446 6.234,-4.903 9.328,-7.362c-0,0 -0.263,-0.288 -0.681,-0.747c-0.2,-0.222 -0.403,-0.444 -0.607,-0.665c-0.103,-0.113 -0.209,-0.238 -0.309,-0.347c-0.997,-1.107 -2.359,-2.635 -3.956,-4.463c-1.016,-1.147 -2.035,-2.228 -3.031,-3.425c-0.491,-0.59 -0.96,-1.222 -1.447,-1.822c-2.972,-3.575 -5.838,-7.25 -7.372,-9.819c-0.028,-0.046 0.025,-0.115 -0,-0.168c-3.872,-5.878 -7.141,-12.21 -8.769,-19.353c-2.844,-12.469 0.956,-26.953 9.678,-36.913c8.678,-9.909 23.335,-16.565 36.469,-16.565c26.244,-0 47.597,21.35 47.597,47.593c-0,12.244 -5.122,22.791 -15.65,32.235c-6.31,5.665 -12.747,10.603 -18.972,15.381c-1.894,1.453 -3.8,2.916 -5.725,4.416c-1.606,1.25 -3.788,2.965 -5.363,4.234c-4.553,3.672 -9.168,7.312 -13.781,10.947l2.144,-1.675c-1.794,1.415 -3.585,2.834 -5.381,4.247c-5.572,4.375 -11.15,8.728 -16.71,13.034c-0.812,0.628 -1.612,1.244 -2.418,1.869c-2.519,1.95 -5.038,3.897 -7.541,5.828c-1.344,1.04 -2.703,2.091 -4.044,3.125c-4.04,3.119 -8.081,6.237 -12.116,9.359c-0.124,0.094 -0.337,0.26 -0.603,0.463c-4.018,3.134 -23.687,18.55 -45.159,35.378c-3.681,2.887 -7.416,5.812 -11.134,8.728c-2.013,1.575 -4.013,3.141 -5.994,4.697c-2.738,2.147 -5.441,4.266 -8.078,6.331c-6.194,4.856 -12.032,9.425 -17.16,13.45c2.666,2.056 5.325,4.113 7.991,6.169c3.681,-2.878 6.106,-4.772 6.934,-5.416c3.435,-2.656 6.875,-5.306 10.316,-7.962Z" style="fill:#aaa;fill-rule:nonzero;"/><path d="M416.528,906.128l0.022,-0.031c-3.653,-2.85 -7.288,-5.647 -10.941,-8.513c-0.572,-0.45 -1.143,-0.893 -1.718,-1.34c-5.554,-4.363 -11.088,-8.728 -16.613,-13.116c-0.65,-0.519 -1.294,-1.037 -1.944,-1.553c-5.153,-4.091 -10.309,-8.184 -15.409,-12.297c-3.066,-2.472 -7.312,-5.809 -10.428,-8.234c-3.71,-2.888 -7.378,-5.703 -11.016,-8.497c-12.369,-9.494 -24.05,-18.46 -35.903,-29.091c-18.053,-16.197 -26.828,-34.078 -26.828,-54.675c0,-45.043 36.647,-81.69 81.691,-81.69c22.59,-0 47.803,11.453 62.734,28.497c14.763,16.865 21.209,41.328 16.422,62.328c-2.559,11.225 -7.497,21.5 -13.519,31.125c-1.722,2.996 -4.319,6.693 -7.112,10.428c-3.585,4.89 -7.316,9.653 -11.138,14.237c-0.772,0.928 -1.578,1.816 -2.362,2.728c3.19,2.469 6.365,4.925 9.525,7.366l16.093,-21.516c9.532,-13.959 17.488,-28.643 21.072,-44.359c5.128,-22.503 -2.2,-49.925 -18.231,-68.234c-16.65,-19.013 -47.006,-32.81 -72.187,-32.81c-51.541,0 -93.469,41.928 -93.469,93.469c-0,22.619 9.722,41.878 30.6,60.609c16.59,14.885 33.29,27.7 50.968,41.269c5.375,4.128 10.794,8.288 16.272,12.553c0.857,0.669 2.532,1.975 4.585,3.582l24.906,19.884l0.006,-0.013c11.147,8.907 22.366,17.794 33.628,26.641c2.382,-1.863 5.294,-4.144 8.619,-6.75l-28.325,-21.997Z" style="fill:#aaa;fill-rule:nonzero;"/><path d="M487.347,79.741c1.981,1.553 3.981,3.121 5.994,4.693c3.718,2.919 7.453,5.841 11.134,8.729c21.472,16.828 41.141,32.243 45.159,35.378c0.266,0.203 0.479,0.368 0.603,0.465c4.035,3.122 8.076,6.238 12.116,9.357c1.341,1.034 2.7,2.087 4.044,3.125c2.503,1.931 5.022,3.881 7.541,5.828c0.806,0.625 1.606,1.243 2.418,1.871c5.56,4.307 11.138,8.657 16.71,13.035c1.796,1.412 3.587,2.828 5.381,4.247l-2.144,-1.675c4.613,3.634 9.228,7.272 13.781,10.943c1.575,1.269 3.757,2.985 5.363,4.232c1.925,1.503 3.831,2.965 5.725,4.418c6.225,4.779 12.662,9.719 18.972,15.379c10.528,9.45 15.65,19.993 15.65,32.237c-0,26.244 -21.353,47.594 -47.597,47.594c-13.134,-0 -27.791,-6.66 -36.469,-16.566c-8.722,-9.956 -12.522,-24.447 -9.678,-36.912c1.628,-7.144 4.897,-13.475 8.769,-19.353c0.025,-0.05 -0.028,-0.122 -0,-0.169c1.534,-2.569 4.4,-6.241 7.368,-9.816c0.488,-0.6 0.96,-1.234 1.451,-1.825c1.003,-1.209 2.031,-2.297 3.056,-3.45c1.584,-1.815 2.94,-3.337 3.931,-4.437c0.1,-0.11 0.206,-0.235 0.309,-0.347c0.204,-0.222 0.407,-0.444 0.607,-0.666c0.418,-0.459 0.681,-0.747 0.681,-0.747c-3.094,-2.459 -6.206,-4.912 -9.328,-7.359l-18.05,23.631c-5.513,8.466 -10.019,17.303 -12.144,26.613c-3.275,14.39 1.428,31.953 11.719,43.703c10.803,12.337 30.5,21.291 46.837,21.291c33.391,-0 60.557,-27.166 60.56,-60.56c-0,-14.444 -6.297,-26.819 -19.813,-38.947c-11.256,-10.093 -22.631,-18.825 -34.672,-28.065c-2.15,-1.65 -4.312,-3.316 -6.484,-4.991l-26.575,-21.047l-0.003,0.006c-2.356,-1.868 -4.713,-3.734 -7.069,-5.606c-5.531,-4.387 -11.066,-8.762 -16.628,-13.128c-14.656,-11.497 -29.341,-22.881 -43.891,-34.116c-4.078,-3.15 -8.168,-6.315 -12.218,-9.437c-1.679,-1.294 -3.354,-2.594 -5.035,-3.888c-2.697,-2.081 -5.387,-4.159 -8.078,-6.24c-3.441,-2.656 -6.881,-5.307 -10.316,-7.966c-0.828,-0.641 -3.253,-2.534 -6.934,-5.415c-2.666,2.059 -5.325,4.115 -7.991,6.171c5.128,4.022 10.966,8.594 17.16,13.45c2.637,2.066 5.34,4.182 8.078,6.332Z" style="fill:#aaa;fill-rule:nonzero;"/><path d="M582.653,230.816c-1.344,5.893 0.7,13.415 4.969,18.29c4.675,5.335 13.522,9.357 20.575,9.357c14.59,-0 26.462,-11.869 26.462,-26.46c0,-6.062 -2.659,-11.15 -8.631,-16.506c-5.706,-5.119 -11.544,-9.603 -17.725,-14.347c-1.156,-0.887 -2.319,-1.778 -3.484,-2.681l-17.522,21.693c-2.113,3.472 -3.816,7.026 -4.644,10.654Z" style="fill:#aaa;fill-rule:nonzero;"/><path d="M368.738,324.531c25.181,0 55.537,-13.8 72.187,-32.809c16.031,-18.309 23.359,-45.734 18.231,-68.238c-3.584,-15.712 -11.54,-30.4 -21.072,-44.359l-16.093,-21.516c-3.16,2.441 -6.335,4.894 -9.525,7.366c0.784,0.913 1.59,1.8 2.362,2.728c3.822,4.581 7.553,9.347 11.138,14.238c2.793,3.731 5.39,7.434 7.112,10.428c6.022,9.625 10.96,19.897 13.519,31.128c4.787,21 -1.659,45.462 -16.422,62.322c-14.931,17.047 -40.144,28.5 -62.734,28.5c-45.044,-0 -81.691,-36.644 -81.691,-81.691c0,-20.594 8.775,-38.478 26.828,-54.675c11.853,-10.631 23.534,-19.597 35.903,-29.09c3.638,-2.791 7.306,-5.61 11.016,-8.497c3.116,-2.425 7.362,-5.763 10.428,-8.235c5.1,-4.112 10.256,-8.206 15.409,-12.297c0.65,-0.518 1.294,-1.037 1.944,-1.55c5.525,-4.39 11.059,-8.756 16.613,-13.118c0.575,-0.447 1.146,-0.891 1.718,-1.341c3.653,-2.866 7.288,-5.659 10.941,-8.512l-0.022,-0.032l28.325,-21.994c-3.325,-2.606 -6.237,-4.887 -8.619,-6.753c-11.262,8.847 -22.481,17.735 -33.628,26.644l-0.006,-0.015l-24.906,19.881c-2.053,1.609 -3.728,2.915 -4.585,3.584c-5.478,4.266 -10.897,8.428 -16.272,12.553c-17.678,13.569 -34.378,26.385 -50.968,41.269c-20.878,18.731 -30.6,37.991 -30.6,60.613c-0,51.537 41.928,93.468 93.469,93.468Z" style="fill:#aaa;fill-rule:nonzero;"/><path d="M521.325,948.297c5.719,-4.466 11.428,-8.934 17.138,-13.422c11.665,-9.166 23.29,-18.372 34.834,-27.606l0.006,0.009l26.95,-21.456c0.544,-0.428 1.003,-0.781 1.328,-1.038c5.478,-4.262 10.897,-8.425 16.266,-12.547c17.684,-13.571 34.384,-26.39 50.978,-41.281c20.878,-18.728 30.603,-37.987 30.603,-60.606c0,-51.541 -41.931,-93.469 -93.469,-93.469c-25.184,0 -55.543,13.797 -72.19,32.81c-16.032,18.309 -23.36,45.731 -18.228,68.234c3.668,16.091 11.9,31.112 21.74,45.366l15.372,20.546c3.178,-2.453 6.372,-4.918 9.575,-7.403c-0.784,-0.915 -1.587,-1.8 -2.362,-2.728c-0.616,-0.737 -1.197,-1.534 -1.81,-2.278c-2.218,-2.703 -4.993,-6.137 -7.806,-9.812c-0.225,-0.297 -0.444,-0.594 -0.666,-0.894c-3.246,-4.284 -6.375,-8.672 -8.278,-12.05l0.022,-0.05c-5.9,-9.503 -10.709,-19.647 -13.228,-30.706c-4.791,-21.003 1.659,-45.466 16.422,-62.325c14.925,-17.047 40.137,-28.5 62.734,-28.5c45.044,-0 81.688,36.647 81.691,81.687c-0,20.597 -8.778,38.481 -26.834,54.678c-11.857,10.638 -23.544,19.606 -35.919,29.103c-3.631,2.791 -7.297,5.6 -10.997,8.485c-3.109,2.425 -7.363,5.762 -10.425,8.234c-4.925,3.969 -9.903,7.922 -14.878,11.875c-0.828,0.656 -1.647,1.319 -2.475,1.975c-5.528,4.388 -11.063,8.753 -16.616,13.116c-0.859,0.675 -1.715,1.34 -2.578,2.009c-12.816,10.053 -25.641,20.028 -38.384,29.872c-5.507,4.253 -11.016,8.516 -16.469,12.719c-0.26,0.203 -0.522,0.406 -0.785,0.609c-2.665,2.056 -5.324,4.113 -7.99,6.169c-4.878,3.766 -9.76,7.528 -14.631,11.297c-0.438,0.34 -1.328,1.034 -2.616,2.043c2.009,1.569 5.016,3.922 8.822,6.901c5.731,-4.441 11.466,-8.897 17.206,-13.369c2.647,-2.063 5.297,-4.128 7.947,-6.197Z" style="fill:#aaa;fill-rule:nonzero;"/><path d="M99.066,458.997c8.14,-10.385 14.272,-18.219 16.115,-20.581c0.207,-0.263 0.369,-0.475 0.466,-0.6c3.147,-4.063 6.284,-8.135 9.428,-12.207c1.009,-1.309 2.041,-2.64 3.056,-3.956c1.697,-2.2 3.413,-4.416 5.122,-6.625c0.859,-1.112 1.713,-2.215 2.575,-3.331c4.306,-5.56 8.656,-11.138 13.034,-16.71c1.791,-2.281 3.588,-4.553 5.388,-6.824l-2.159,2.759c3.422,-4.338 6.84,-8.675 10.287,-12.953c1.272,-1.575 2.988,-3.763 4.238,-5.366c1.49,-1.916 2.953,-3.819 4.4,-5.703c4.781,-6.231 9.728,-12.675 15.393,-18.991c9.447,-10.531 19.994,-15.65 32.235,-15.65c26.244,0 47.597,21.35 47.597,47.594c-0,13.141 -6.66,27.794 -16.569,36.472c-9.956,8.719 -24.444,12.519 -36.91,9.678c-7.193,-1.641 -13.562,-4.944 -19.475,-8.853c0,0 -0.034,0.009 -0.046,0c-1.069,-0.634 -2.363,-1.547 -3.725,-2.556c-2.725,-1.991 -5.378,-4.06 -7.916,-6.178c-2.884,-2.403 -5.609,-4.894 -8.244,-7.307c-0.472,-0.431 -0.94,-0.856 -1.403,-1.278c-2.447,3.078 -4.887,6.172 -7.322,9.275l24.563,18.763l-0.006,0.009c8.175,5.219 16.7,9.431 25.646,11.472c14.391,3.281 31.957,-1.428 43.707,-11.716c12.334,-10.806 21.29,-30.503 21.29,-46.837c0,-33.391 -27.165,-60.556 -60.559,-60.556c-14.447,-0 -26.822,6.293 -38.944,19.806c-10.094,11.253 -18.822,22.622 -28.059,34.656c-2.4,3.128 -4.825,6.281 -7.291,9.46l-16.569,20.881l-7.787,9.812l-0.997,1.26c-0.959,1.209 -1.916,2.428 -2.872,3.637c-3.09,3.903 -6.181,7.803 -9.259,11.728c-11.497,14.653 -22.882,29.338 -34.119,43.891c2.084,2.659 4.237,5.403 6.431,8.206l19.26,-24.581Z" style="fill:#aaa;fill-rule:nonzero;"/><path d="M217.459,405.4c5.894,1.344 13.413,-0.703 18.291,-4.972c5.334,-4.672 9.356,-13.519 9.356,-20.575c0,-14.59 -11.872,-26.462 -26.462,-26.462c-6.06,-0 -11.15,2.662 -16.507,8.634c-5.124,5.709 -9.609,11.553 -14.359,17.741c-0.869,1.134 -1.744,2.272 -2.628,3.418l21.881,17.672l-0.009,0.019c3.406,2.047 6.884,3.716 10.437,4.525Z" style="fill:#aaa;fill-rule:nonzero;"/><path d="M60.05,508.784c1.297,1.682 2.594,3.357 3.887,5.035c3.122,4.05 6.288,8.144 9.438,12.222c11.237,14.55 22.622,29.234 34.119,43.887c4.362,5.563 8.737,11.097 13.128,16.628c1.869,2.356 3.737,4.713 5.606,7.069l-0.006,0.003l21.047,26.575c1.675,2.175 3.337,4.334 4.987,6.485c9.244,12.04 17.975,23.418 28.069,34.671c12.125,13.516 24.503,19.813 38.947,19.813c33.39,-0.003 60.559,-27.169 60.559,-60.559c0,-16.335 -8.953,-36.035 -21.29,-46.835c-11.747,-10.29 -29.316,-14.997 -43.707,-11.719c-9.306,2.122 -18.143,6.629 -26.612,12.141l-23.631,18.053c2.446,3.119 4.903,6.231 7.362,9.328c0,0 0.284,-0.262 0.747,-0.681c0.222,-0.203 0.441,-0.403 0.666,-0.609c0.112,-0.104 0.237,-0.207 0.35,-0.31c1.09,-0.984 2.597,-2.325 4.393,-3.897c1.169,-1.034 2.269,-2.075 3.488,-3.09c0.597,-0.494 1.234,-0.969 1.841,-1.463c3.568,-2.965 7.237,-5.825 9.803,-7.353c0.046,-0.028 0.115,0.022 0.165,0c5.882,-3.872 12.213,-7.14 19.356,-8.772c12.466,-2.84 26.954,0.957 36.91,9.678c9.909,8.678 16.569,23.335 16.569,36.472c-0,26.241 -21.353,47.594 -47.597,47.594c-12.241,-0 -22.788,-5.119 -32.235,-15.65c-5.662,-6.309 -10.603,-12.747 -15.381,-18.972c-1.45,-1.89 -2.912,-3.8 -4.415,-5.725c-1.247,-1.603 -2.963,-3.787 -4.232,-5.359c-3.672,-4.556 -7.312,-9.169 -10.947,-13.785l1.675,2.147c-1.415,-1.793 -2.834,-3.587 -4.247,-5.384c-4.378,-5.572 -8.728,-11.15 -13.034,-16.709c-0.628,-0.81 -1.244,-1.613 -1.869,-2.419c-1.95,-2.519 -3.897,-5.035 -5.828,-7.538c-1.04,-1.343 -2.09,-2.706 -3.125,-4.047c-3.119,-4.04 -6.237,-8.081 -9.359,-12.115c-0.097,-0.125 -0.259,-0.338 -0.466,-0.6c-3.134,-4.019 -18.547,-23.691 -35.375,-45.163c-2.887,-3.681 -5.812,-7.415 -8.728,-11.134c-1.575,-2.013 -3.144,-4.009 -4.697,-5.991c-2.147,-2.74 -4.265,-5.443 -6.331,-8.081c-4.856,-6.194 -9.428,-12.028 -13.45,-17.159c-2.056,2.665 -4.112,5.325 -6.169,7.99c2.878,3.682 4.772,6.107 5.413,6.938c2.659,3.431 5.312,6.872 7.965,10.312c2.082,2.691 4.16,5.385 6.241,8.078Z" style="fill:#aaa;fill-rule:nonzero;"/><path d="M81.953,429.906c2.853,-3.65 5.65,-7.287 8.516,-10.94c0.45,-0.572 0.89,-1.144 1.34,-1.716c4.36,-5.553 8.728,-11.091 13.116,-16.616c0.516,-0.646 1.034,-1.293 1.55,-1.943c4.094,-5.153 8.187,-10.307 12.3,-15.407c2.472,-3.065 5.806,-7.315 8.234,-10.431c2.888,-3.709 5.703,-7.378 8.497,-11.016c9.491,-12.365 18.46,-24.046 29.091,-35.9c16.197,-18.056 34.081,-26.831 54.675,-26.831c45.044,0 81.691,36.647 81.691,81.691c-0,22.594 -11.454,47.803 -28.501,62.734c-16.862,14.763 -41.325,21.213 -62.325,16.422c-11.228,-2.559 -21.499,-7.494 -31.128,-13.519c-2.99,-1.718 -6.687,-4.315 -10.415,-7.103c-4.894,-3.59 -9.663,-7.322 -14.247,-11.144c-0.928,-0.774 -1.816,-1.578 -2.731,-2.365c-2.469,3.19 -4.922,6.365 -7.363,9.525l21.491,16.078c13.968,9.541 28.659,17.503 44.381,21.088c22.506,5.131 49.928,-2.197 68.237,-18.229c19.013,-16.653 32.81,-47.009 32.81,-72.19c-0,-51.541 -41.931,-93.469 -93.469,-93.469c-22.619,0 -41.878,9.725 -60.609,30.6c-14.885,16.591 -27.7,33.291 -41.272,50.969c-4.125,5.375 -8.285,10.797 -12.55,16.272c-0.669,0.856 -1.978,2.534 -3.585,4.584l-19.881,24.906l0.013,0.007c-8.907,11.149 -17.794,22.368 -26.644,33.628c1.866,2.381 4.147,5.293 6.753,8.618l21.997,-28.325l0.028,0.022Z" style="fill:#aaa;fill-rule:nonzero;"/></svg>